<svg version="1.1" xmlns="http://www.w3.org/2000/svg" viewBox="-271.2 -1045.7 1841.4 1390.9"><desc>Created with Snap</desc><defs></defs><g><rect x="-271.2" y="-1045.7" width="1841.4" height="1390.9" fill="#efd9ce" style=""></rect><g><g transform="matrix(1,0,0,-1,0,0)"><path d="M381 644Q375 643 372 646Q369 649 365 649Q355 646 349 650Q346 652 343 651Q340 650 337 650Q332 650 329 653Q326 656 322 657Q317 656 312 656Q307 656 302 656Q293 656 287 653Q281 651 278 651Q267 653 266 652Q265 651 263 650Q257 646 247 647Q237 648 230 646Q229 646 223 643Q218 640 212 636Q206 632 200 628Q194 625 193 624Q191 617 188 611Q186 606 184 599Q167 586 160 579Q154 573 152 558Q144 545 142 538Q140 531 140 523Q140 517 143 512Q146 508 146 502Q153 495 151 493Q149 492 158 488Q164 486 164 478Q175 471 177 466Q180 462 188 460Q190 456 191 453Q193 450 195 447Q202 445 207 442Q212 439 217 437Q222 435 227 434Q233 434 241 437Q246 429 254 426Q263 426 277 426Q292 426 307 427Q323 428 336 430Q350 432 356 437Q362 435 366 431Q371 428 376 424Q383 426 389 423Q396 421 402 418Q408 415 414 413Q421 412 430 415Q433 411 436 407Q439 403 443 400Q454 398 465 395Q476 392 484 382L500 382Q502 374 508 373Q515 372 520 367Q524 367 525 365Q526 363 527 361Q528 360 529 359Q531 358 536 359Q540 347 552 343Q559 327 567 323Q565 315 571 307Q578 299 578 288Q582 283 584 277Q586 271 591 266Q588 255 589 245Q591 236 594 227Q597 218 600 209Q604 200 604 191Q604 187 603 184Q602 181 601 178Q601 176 603 173Q606 170 606 167Q606 160 603 157Q600 155 602 147Q595 142 592 137Q590 132 591 124Q586 123 585 120Q585 118 580 117Q581 107 576 100Q571 94 571 85Q571 80 567 79Q563 79 560 77Q559 72 555 62Q549 62 548 60Q548 59 546 57Q528 46 519 36Q511 27 492 22Q487 21 485 17Q483 14 479 12L467 12Q462 7 458 4Q455 1 453 -5Q434 -13 419 -25Q409 -24 398 -28Q388 -31 380 -27Q375 -29 359 -34Q343 -38 338 -38Q332 -38 331 -35Q331 -31 323 -31Q317 -31 311 -34Q306 -36 300 -36Q289 -36 279 -32Q269 -27 258 -34Q250 -31 243 -28Q237 -25 229 -23Q226 -22 222 -22Q219 -22 216 -21Q205 -18 200 -15Q196 -12 184 -12Q167 -12 153 -5Q139 3 123 5Q117 16 105 21Q104 26 101 28Q98 30 95 32Q90 36 86 41Q83 46 80 51Q74 53 69 57Q64 62 59 67Q60 76 58 79Q57 83 51 91L51 108Q46 115 41 122Q36 129 36 138Q36 150 43 161Q50 172 55 183Q63 184 67 184Q72 185 76 184Q81 183 85 183Q89 183 91 189Q97 182 102 175Q108 168 116 164Q116 152 121 146Q126 140 129 129Q131 122 137 120Q143 118 142 107Q145 105 149 103Q153 101 157 99Q157 94 158 91Q159 89 161 84Q168 77 177 74Q187 71 194 64Q200 64 204 62Q209 61 214 64Q222 61 227 59Q233 58 241 58Q246 58 248 54Q250 51 252 51Q260 51 262 56Q272 54 279 50Q287 47 298 47Q306 47 315 48Q324 49 332 49Q339 49 345 48Q352 47 358 47Q362 47 375 51Q389 55 394 57Q404 60 406 66L417 66Q426 77 439 81Q452 86 463 94Q465 94 469 94Q473 94 475 96Q481 98 483 104Q486 111 488 116Q493 114 494 117Q495 121 501 120Q503 125 501 130Q511 133 513 141Q516 149 521 157Q519 162 520 166Q521 171 521 176Q519 184 520 186Q521 189 521 191Q521 197 519 207Q517 217 513 228Q510 239 505 248Q501 258 497 263Q498 274 493 277Q489 281 487 290Q485 291 480 293Q476 296 470 299Q465 302 461 305Q457 308 456 309Q445 316 435 315Q425 314 417 324Q415 324 410 321Q406 319 401 319Q400 323 398 325Q397 327 395 330Q381 332 367 339Q354 346 340 346Q335 346 330 343Q325 341 320 341Q316 341 313 342Q310 343 307 343Q302 343 298 342Q294 341 290 341Q283 341 277 343Q271 345 264 345Q261 345 258 344Q255 343 252 343Q243 343 236 346Q230 350 217 349Q212 349 209 352Q206 356 197 356Q192 356 186 357Q181 358 177 362Q165 360 160 363Q156 366 151 370Q146 375 141 379Q137 384 136 386Q132 385 131 387Q130 389 125 388Q119 398 110 406Q101 415 96 426Q93 430 83 434Q83 438 81 441Q80 444 81 448Q64 462 64 480Q61 485 59 488Q58 492 53 495Q55 503 57 513Q60 524 52 530Q61 541 61 553Q62 566 70 577Q71 582 72 587Q73 592 72 597Q77 598 83 607Q89 616 90 621Q100 623 104 631Q108 639 116 644Q118 654 124 661Q130 668 135 676Q140 687 145 695Q151 704 162 710Q170 709 179 712Q188 716 193 714Q196 716 198 719Q201 722 205 723Q216 730 219 729Q222 729 228 729Q245 729 251 733Q258 738 266 738Q270 738 274 736Q278 735 282 735Q290 735 302 736Q314 738 326 738Q339 739 350 738Q361 738 368 734Q373 731 378 732Q384 733 389 731Q394 729 396 725Q398 721 402 718Q407 718 417 716Q427 714 437 711Q448 708 457 705Q467 702 471 699Q476 700 481 698Q486 696 491 697Q493 690 499 689Q505 689 507 681Q509 680 513 678Q517 676 521 673Q526 671 530 669Q534 668 535 668Q538 668 541 669Q544 671 547 671Q550 660 555 650Q560 641 565 632Q563 624 562 617Q561 610 560 602Q553 599 546 595Q540 592 532 592Q526 592 521 594Q516 597 510 597Q505 597 501 595Q498 594 493 595Q476 604 469 616Q462 615 459 617Q457 620 453 625Q449 623 448 622Q447 621 442 623Q440 628 433 631Q426 634 421 634Q418 634 415 632Q413 631 410 631Q405 631 400 634Q395 637 392 637Q382 635 382 638Q382 641 381 644ZM1038 644Q1032 643 1029 646Q1026 649 1022 649Q1012 646 1006 650Q1003 652 1000 651Q997 650 994 650Q989 650 986 653Q983 656 979 657Q974 656 969 656Q964 656 959 656Q950 656 944 653Q938 651 935 651Q924 653 923 652Q922 651 920 650Q914 646 904 647Q894 648 887 646Q886 646 880 643Q875 640 869 636Q863 632 857 628Q851 625 850 624Q848 617 845 611Q843 606 841 599Q824 586 817 579Q811 573 809 558Q801 545 799 538Q797 531 797 523Q797 517 800 512Q803 508 803 502Q810 495 808 493Q806 492 815 488Q821 486 821 478Q832 471 834 466Q837 462 845 460Q847 456 848 453Q850 450 852 447Q859 445 864 442Q869 439 874 437Q879 435 884 434Q890 434 898 437Q903 429 911 426Q920 426 934 426Q949 426 964 427Q980 428 993 430Q1007 432 1013 437Q1019 435 1023 431Q1028 428 1033 424Q1040 426 1046 423Q1053 421 1059 418Q1065 415 1071 413Q1078 412 1087 415Q1090 411 1093 407Q1096 403 1100 400Q1111 398 1122 395Q1133 392 1141 382L1157 382Q1159 374 1165 373Q1172 372 1177 367Q1181 367 1182 365Q1183 363 1184 361Q1185 360 1186 359Q1188 358 1193 359Q1197 347 1209 343Q1216 327 1224 323Q1222 315 1228 307Q1235 299 1235 288Q1239 283 1241 277Q1243 271 1248 266Q1245 255 1246 245Q1248 236 1251 227Q1254 218 1257 209Q1261 200 1261 191Q1261 187 1260 184Q1259 181 1258 178Q1258 176 1260 173Q1263 170 1263 167Q1263 160 1260 157Q1257 155 1259 147Q1252 142 1249 137Q1247 132 1248 124Q1243 123 1242 120Q1242 118 1237 117Q1238 107 1233 100Q1228 94 1228 85Q1228 80 1224 79Q1220 79 1217 77Q1216 72 1212 62Q1206 62 1205 60Q1205 59 1203 57Q1185 46 1176 36Q1168 27 1149 22Q1144 21 1142 17Q1140 14 1136 12L1124 12Q1119 7 1115 4Q1112 1 1110 -5Q1091 -13 1076 -25Q1066 -24 1055 -28Q1045 -31 1037 -27Q1032 -29 1016 -34Q1000 -38 995 -38Q989 -38 988 -35Q988 -31 980 -31Q974 -31 968 -34Q963 -36 957 -36Q946 -36 936 -32Q926 -27 915 -34Q907 -31 900 -28Q894 -25 886 -23Q883 -22 879 -22Q876 -22 873 -21Q862 -18 857 -15Q853 -12 841 -12Q824 -12 810 -5Q796 3 780 5Q774 16 762 21Q761 26 758 28Q755 30 752 32Q747 36 743 41Q740 46 737 51Q731 53 726 57Q721 62 716 67Q717 76 715 79Q714 83 708 91L708 108Q703 115 698 122Q693 129 693 138Q693 150 700 161Q707 172 712 183Q720 184 724 184Q729 185 733 184Q738 183 742 183Q746 183 748 189Q754 182 759 175Q765 168 773 164Q773 152 778 146Q783 140 786 129Q788 122 794 120Q800 118 799 107Q802 105 806 103Q810 101 814 99Q814 94 815 91Q816 89 818 84Q825 77 834 74Q844 71 851 64Q857 64 861 62Q866 61 871 64Q879 61 884 59Q890 58 898 58Q903 58 905 54Q907 51 909 51Q917 51 919 56Q929 54 936 50Q944 47 955 47Q963 47 972 48Q981 49 989 49Q996 49 1002 48Q1009 47 1015 47Q1019 47 1032 51Q1046 55 1051 57Q1061 60 1063 66L1074 66Q1083 77 1096 81Q1109 86 1120 94Q1122 94 1126 94Q1130 94 1132 96Q1138 98 1140 104Q1143 111 1145 116Q1150 114 1151 117Q1152 121 1158 120Q1160 125 1158 130Q1168 133 1170 141Q1173 149 1178 157Q1176 162 1177 166Q1178 171 1178 176Q1176 184 1177 186Q1178 189 1178 191Q1178 197 1176 207Q1174 217 1170 228Q1167 239 1162 248Q1158 258 1154 263Q1155 274 1150 277Q1146 281 1144 290Q1142 291 1137 293Q1133 296 1127 299Q1122 302 1118 305Q1114 308 1113 309Q1102 316 1092 315Q1082 314 1074 324Q1072 324 1067 321Q1063 319 1058 319Q1057 323 1055 325Q1054 327 1052 330Q1038 332 1024 339Q1011 346 997 346Q992 346 987 343Q982 341 977 341Q973 341 970 342Q967 343 964 343Q959 343 955 342Q951 341 947 341Q940 341 934 343Q928 345 921 345Q918 345 915 344Q912 343 909 343Q900 343 893 346Q887 350 874 349Q869 349 866 352Q863 356 854 356Q849 356 843 357Q838 358 834 362Q822 360 817 363Q813 366 808 370Q803 375 798 379Q794 384 793 386Q789 385 788 387Q787 389 782 388Q776 398 767 406Q758 415 753 426Q750 430 740 434Q740 438 738 441Q737 444 738 448Q721 462 721 480Q718 485 716 488Q715 492 710 495Q712 503 714 513Q717 524 709 530Q718 541 718 553Q719 566 727 577Q728 582 729 587Q730 592 729 597Q734 598 740 607Q746 616 747 621Q757 623 761 631Q765 639 773 644Q775 654 781 661Q787 668 792 676Q797 687 802 695Q808 704 819 710Q827 709 836 712Q845 716 850 714Q853 716 855 719Q858 722 862 723Q873 730 876 729Q879 729 885 729Q902 729 908 733Q915 738 923 738Q927 738 931 736Q935 735 939 735Q947 735 959 736Q971 738 983 738Q996 739 1007 738Q1018 738 1025 734Q1030 731 1035 732Q1041 733 1046 731Q1051 729 1053 725Q1055 721 1059 718Q1064 718 1074 716Q1084 714 1094 711Q1105 708 1114 705Q1124 702 1128 699Q1133 700 1138 698Q1143 696 1148 697Q1150 690 1156 689Q1162 689 1164 681Q1166 680 1170 678Q1174 676 1178 673Q1183 671 1187 669Q1191 668 1192 668Q1195 668 1198 669Q1201 671 1204 671Q1207 660 1212 650Q1217 641 1222 632Q1220 624 1219 617Q1218 610 1217 602Q1210 599 1203 595Q1197 592 1189 592Q1183 592 1178 594Q1173 597 1167 597Q1162 597 1158 595Q1155 594 1150 595Q1133 604 1126 616Q1119 615 1116 617Q1114 620 1110 625Q1106 623 1105 622Q1104 621 1099 623Q1097 628 1090 631Q1083 634 1078 634Q1075 634 1072 632Q1070 631 1067 631Q1062 631 1057 634Q1052 637 1049 637Q1039 635 1039 638Q1039 641 1038 644Z" fill="#292929" style=""></path></g></g></g></svg>